<?xml version="1.0" standalone="no"?>
<!DOCTYPE svg PUBLIC "-//W3C//DTD SVG 20010904//EN"
 "http://www.w3.org/TR/2001/REC-SVG-20010904/DTD/svg10.dtd">
<svg version="1.0" xmlns="http://www.w3.org/2000/svg"
 width="1200.000000pt" height="1200.000000pt" viewBox="0 0 1200.000000 1200.000000"
 preserveAspectRatio="xMidYMid meet">

<g transform="translate(0.000000,1200.000000) scale(0.100000,-0.100000)"
fill="#000000" stroke="none">
<path d="M0 6000 l0 -6000 6000 0 6000 0 0 6000 0 6000 -6000 0 -6000 0 0
-6000z m7728 3218 l3 -98 94 0 95 0 0 -360 0 -360 -277 0 -278 0 35 -27 c19
-15 59 -52 89 -82 29 -31 99 -103 156 -161 145 -149 197 -234 246 -402 24 -83
33 -262 18 -343 -5 -28 -11 -59 -13 -70 -24 -125 -134 -314 -238 -410 -87 -81
-232 -169 -312 -189 -14 -3 -26 -10 -26 -14 0 -4 21 -20 46 -36 45 -28 142
-118 195 -181 14 -16 48 -50 75 -75 195 -178 288 -396 279 -650 -4 -116 -6
-128 -36 -226 -49 -158 -147 -300 -284 -411 l-40 -32 88 -1 87 0 0 -98 0 -98
93 1 92 0 0 -359 0 -359 -1675 0 -1675 -1 -5 95 -5 94 -85 1 c-47 1 -89 2 -95
3 -6 1 -9 125 -8 353 0 194 1 356 2 361 1 4 126 7 278 7 l278 0 -36 30 c-87
71 -349 341 -386 397 -182 276 -178 657 10 933 43 63 132 155 196 203 58 43
227 127 256 127 11 0 -5 17 -41 42 -72 51 -369 346 -411 408 -99 147 -144 297
-144 480 1 169 51 332 144 470 40 58 131 155 181 191 l39 29 -86 0 -87 0 0 95
0 94 -97 3 -97 3 -1 350 c0 193 1 355 2 360 2 7 569 10 1681 10 l1677 0 3 -97z
m-3878 -6163 l0 -364 88 -3 87 -3 3 -32 3 -33 -230 0 -230 0 1 30 c1 17 4 33
8 35 3 2 43 5 88 6 l82 2 0 328 0 328 -67 3 -68 3 -3 33 -3 32 120 0 121 0 0
-365z m810 -35 l0 -400 -40 0 c-37 0 -39 2 -46 35 l-6 35 -35 -31 c-45 -39
-72 -49 -134 -49 -66 0 -106 18 -151 68 -46 51 -68 122 -68 222 0 98 22 171
66 220 45 49 90 70 153 70 60 0 106 -17 141 -53 l26 -26 -4 155 -4 154 51 0
51 0 0 -400z m2970 35 l0 -364 88 -3 87 -3 3 -32 3 -33 -228 0 -229 0 -2 29
c-1 16 1 32 6 35 5 3 45 6 90 7 l82 2 0 328 0 328 -67 3 -68 3 -3 33 -3 32
120 0 121 0 0 -365z m1890 346 c25 -48 -1 -101 -50 -101 -36 0 -50 17 -50 60
0 45 15 60 57 60 22 0 36 -6 43 -19z m-8072 -399 c67 -203 122 -372 122 -375
0 -4 -22 -7 -49 -7 l-48 0 -32 103 c-18 56 -34 108 -36 115 -4 10 -35 12 -131
10 l-126 -3 -36 -112 -36 -113 -48 0 c-26 0 -48 3 -48 6 0 3 54 172 120 375
l121 369 53 0 52 0 122 -368z m4410 0 c67 -203 122 -372 122 -375 0 -4 -22 -7
-49 -7 l-48 0 -32 103 c-18 56 -34 108 -36 115 -4 10 -35 12 -131 10 l-126 -3
-36 -112 -36 -113 -48 0 c-26 0 -48 3 -48 6 0 3 54 172 120 375 l121 369 53 0
52 0 122 -368z m2962 253 l0 -75 116 0 115 0 -3 -37 -3 -38 -95 -1 c-52 -1
-103 -2 -113 -3 -18 -1 -18 -12 -15 -182 l3 -181 29 -25 c27 -23 36 -25 110
-22 l80 4 1 -27 c3 -46 -8 -52 -102 -56 -77 -3 -94 0 -133 20 -76 39 -82 59
-83 278 0 126 -4 190 -11 193 -6 2 -37 3 -68 2 -57 -1 -58 0 -58 26 0 26 4 28
58 39 31 6 62 13 69 15 6 2 19 35 29 74 17 67 20 71 46 71 l28 0 0 -75z
m-6698 -83 c8 -8 8 -22 -1 -52 -6 -22 -13 -40 -14 -40 -1 0 -22 6 -47 14 -90
27 -176 1 -215 -64 -18 -31 -20 -55 -23 -222 l-4 -188 -49 0 -49 0 0 281 0
280 43 -3 42 -3 5 -48 5 -47 29 36 c45 56 96 76 189 71 43 -2 83 -9 89 -15z
m541 4 c41 -17 81 -62 96 -105 7 -21 11 -113 11 -242 l0 -209 -50 0 -50 0 0
206 c0 227 -6 251 -62 275 -36 15 -110 7 -144 -16 -53 -34 -64 -81 -64 -282
l0 -183 -50 0 -50 0 0 280 0 280 40 0 c37 0 39 -2 46 -36 l6 -35 27 25 c14 14
42 32 61 40 44 19 141 20 183 2z m618 -14 c59 -30 111 -95 129 -160 14 -53 12
-161 -5 -218 -69 -233 -411 -231 -481 3 -8 25 -14 79 -14 119 0 100 27 171 85
222 53 47 90 60 171 61 49 1 73 -5 115 -27z m3162 14 c41 -17 81 -62 96 -105
7 -21 11 -113 11 -242 l0 -209 -50 0 -50 0 0 206 c0 227 -6 251 -62 275 -36
15 -110 7 -144 -16 -53 -34 -64 -81 -64 -282 l0 -183 -50 0 -50 0 0 280 0 280
40 0 c37 0 39 -2 46 -36 l6 -35 27 25 c14 14 42 32 61 40 44 19 141 20 183 2z
m640 -15 c68 -42 72 -58 75 -314 l3 -228 -37 3 c-34 3 -39 7 -47 37 l-8 34
-27 -26 c-90 -86 -271 -73 -324 23 -15 27 -18 50 -16 97 4 55 8 67 38 98 44
45 104 65 223 72 l97 6 0 33 c0 115 -109 147 -272 79 -12 -5 -21 1 -32 24 -9
16 -16 34 -16 39 0 5 28 19 63 31 87 30 225 26 280 -8z m3183 18 c24 -6 47
-15 50 -20 5 -9 -14 -79 -21 -79 -2 0 -34 7 -71 16 -73 17 -142 9 -189 -22
-41 -27 -65 -91 -65 -175 0 -166 90 -232 265 -193 86 18 85 19 85 -25 0 -34
-4 -40 -32 -52 -21 -9 -72 -14 -138 -14 -89 0 -111 3 -145 22 -47 25 -86 65
-111 113 -27 52 -32 202 -9 271 22 65 85 130 146 152 52 18 172 21 235 6z
m627 -12 c36 -15 37 -17 25 -44 -19 -45 -23 -47 -92 -28 -121 33 -229 3 -210
-59 11 -36 23 -44 107 -77 115 -44 151 -64 180 -99 70 -82 30 -195 -82 -235
-56 -20 -192 -20 -259 0 l-52 16 0 45 c0 40 2 45 18 39 120 -46 276 -44 302 5
31 58 1 89 -135 145 -71 29 -120 56 -137 75 -29 32 -44 85 -34 125 10 38 56
84 101 101 52 19 214 14 268 -9z m-2778 -201 c46 -115 86 -218 89 -230 4 -15
17 10 45 89 21 61 59 164 83 230 l44 120 52 3 51 3 -23 -63 c-131 -346 -242
-621 -266 -659 -43 -66 -93 -91 -177 -87 l-68 3 -3 38 -3 37 53 0 c29 0 64 6
78 13 30 15 66 67 81 116 10 34 5 51 -86 271 -53 129 -106 257 -116 283 l-19
48 51 -3 51 -3 83 -209z m1407 -28 c2 -186 6 -243 16 -244 6 -1 46 -2 87 -3
l75 -1 0 -35 0 -35 -225 0 -225 0 0 30 c0 37 4 38 100 42 l75 3 1 195 c0 107
-2 201 -4 208 -3 8 -26 12 -68 12 l-64 0 0 35 0 35 115 0 115 0 2 -242z"/>
<path d="M5720 8373 c38 -29 104 -94 160 -158 20 -22 59 -60 86 -85 28 -25 68
-66 89 -92 l38 -46 33 69 c58 121 137 220 237 301 l49 38 -364 0 -363 0 35
-27z"/>
<path d="M6180 7204 c-36 -96 -126 -230 -205 -302 -70 -64 -175 -131 -264
-167 l-80 -32 50 -33 c50 -32 159 -132 195 -180 10 -14 43 -45 72 -69 29 -24
73 -70 98 -102 l46 -58 35 71 c92 192 276 364 460 430 35 13 63 25 63 28 0 3
-17 14 -37 25 -39 21 -354 326 -397 384 l-25 34 -11 -29z"/>
<path d="M6162 5436 c-56 -120 -133 -218 -242 -308 l-45 -38 365 1 365 0 -34
27 c-51 40 -327 313 -355 350 l-24 33 -30 -65z"/>
<path d="M4365 3101 c-53 -22 -84 -93 -85 -196 0 -88 14 -138 50 -178 26 -29
33 -32 88 -32 113 0 146 52 140 220 -5 117 -22 159 -73 181 -38 15 -89 17
-120 5z"/>
<path d="M1231 3112 c-24 -81 -46 -153 -48 -159 -4 -10 19 -13 92 -13 82 0 96
2 91 15 -5 13 -86 281 -89 297 -1 4 -22 -59 -46 -140z"/>
<path d="M5641 3112 c-24 -81 -46 -153 -48 -159 -4 -10 19 -13 92 -13 82 0 96
2 91 15 -5 13 -86 281 -89 297 -1 4 -22 -59 -46 -140z"/>
<path d="M3090 3092 c-59 -29 -75 -71 -75 -192 0 -87 3 -111 20 -140 56 -96
208 -92 259 6 30 56 30 212 0 269 -24 47 -72 75 -129 75 -22 0 -56 -8 -75 -18z"/>
<path d="M6875 2872 c-55 -19 -75 -45 -75 -103 0 -25 7 -42 24 -58 22 -21 33
-23 88 -19 100 6 148 56 148 152 l0 46 -67 0 c-38 -1 -90 -9 -118 -18z"/>
</g>
</svg>
